<svg xmlns="http://www.w3.org/2000/svg" version="1.1" xmlns:xlink="http://www.w3.org/1999/xlink" xmlns:svgjs="http://svgjs.dev/svgjs" width="1440" height="560" preserveAspectRatio="none" viewBox="0 0 1440 560"><g mask="url(&quot;#SvgjsMask1000&quot;)" fill="none"><rect width="1440" height="560" x="0" y="0" fill="#0e2a47"></rect><path d="M33.91 409.04L98.86 446.54L98.86 521.54L33.91 559.04L-31.04 521.54L-31.04 446.54zM228.77 71.54L293.73 109.04L293.73 184.04L228.77 221.54L163.82 184.04L163.82 109.04zM163.82 409.04L228.77 446.54L228.77 521.54L163.82 559.04L98.86 521.54L98.86 446.54zM293.73 184.04L358.68 221.54L358.68 296.54L293.73 334.04L228.77 296.54L228.77 221.54zM293.73 409.04L358.68 446.54L358.68 521.54L293.73 559.04L228.77 521.54L228.77 446.54zM488.59 521.54L553.54 559.04L553.54 634.04L488.59 671.54L423.63 634.04L423.63 559.04zM618.49 296.54L683.45 334.04L683.45 409.04L618.49 446.54L553.54 409.04L553.54 334.04zM683.45 -40.96L748.4 -3.46L748.4 71.54L683.45 109.04L618.49 71.54L618.49 -3.46zM878.31 296.54L943.26 334.04L943.26 409.04L878.31 446.54L813.35 409.04L813.35 334.04zM1008.22 71.54L1073.17 109.04L1073.17 184.04L1008.22 221.54L943.26 184.04L943.26 109.04zM943.26 409.04L1008.22 446.54L1008.22 521.54L943.26 559.04L878.31 521.54L878.31 446.54zM1073.17 184.04L1138.12 221.54L1138.12 296.54L1073.17 334.04L1008.22 296.54L1008.22 221.54zM1138.12 521.54L1203.08 559.04L1203.08 634.04L1138.12 671.54L1073.17 634.04L1073.17 559.04zM1268.03 71.54L1332.98 109.04L1332.98 184.04L1268.03 221.54L1203.08 184.04L1203.08 109.04zM1268.03 296.54L1332.98 334.04L1332.98 409.04L1268.03 446.54L1203.08 409.04L1203.08 334.04zM1397.94 71.54L1462.89 109.04L1462.89 184.04L1397.94 221.54L1332.99 184.04L1332.99 109.04zM1332.99 184.04L1397.94 221.54L1397.94 296.54L1332.99 334.04L1268.03 296.54L1268.03 221.54zM1332.99 409.04L1397.94 446.54L1397.94 521.54L1332.99 559.04L1268.03 521.54L1268.03 446.54zM1527.85 521.54L1592.8 559.04L1592.8 634.04L1527.85 671.54L1462.89 634.04L1462.89 559.04z" stroke="#03305d" stroke-width="2"></path><path d="M26.41 409.04 a7.5 7.5 0 1 0 15 0 a7.5 7.5 0 1 0 -15 0zM91.36 446.54 a7.5 7.5 0 1 0 15 0 a7.5 7.5 0 1 0 -15 0zM91.36 521.54 a7.5 7.5 0 1 0 15 0 a7.5 7.5 0 1 0 -15 0zM26.41 559.04 a7.5 7.5 0 1 0 15 0 a7.5 7.5 0 1 0 -15 0zM-38.54 521.54 a7.5 7.5 0 1 0 15 0 a7.5 7.5 0 1 0 -15 0zM-38.54 446.54 a7.5 7.5 0 1 0 15 0 a7.5 7.5 0 1 0 -15 0zM221.27 71.54 a7.5 7.5 0 1 0 15 0 a7.5 7.5 0 1 0 -15 0zM286.23 109.04 a7.5 7.5 0 1 0 15 0 a7.5 7.5 0 1 0 -15 0zM286.23 184.04 a7.5 7.5 0 1 0 15 0 a7.5 7.5 0 1 0 -15 0zM221.27 221.54 a7.5 7.5 0 1 0 15 0 a7.5 7.5 0 1 0 -15 0zM156.32 184.04 a7.5 7.5 0 1 0 15 0 a7.5 7.5 0 1 0 -15 0zM156.32 109.04 a7.5 7.5 0 1 0 15 0 a7.5 7.5 0 1 0 -15 0zM156.32 409.04 a7.5 7.5 0 1 0 15 0 a7.5 7.5 0 1 0 -15 0zM221.27 446.54 a7.5 7.5 0 1 0 15 0 a7.5 7.5 0 1 0 -15 0zM221.27 521.54 a7.5 7.5 0 1 0 15 0 a7.5 7.5 0 1 0 -15 0zM156.32 559.04 a7.5 7.5 0 1 0 15 0 a7.5 7.5 0 1 0 -15 0zM351.18 221.54 a7.5 7.5 0 1 0 15 0 a7.5 7.5 0 1 0 -15 0zM351.18 296.54 a7.5 7.5 0 1 0 15 0 a7.5 7.5 0 1 0 -15 0zM286.23 334.04 a7.5 7.5 0 1 0 15 0 a7.5 7.5 0 1 0 -15 0zM221.27 296.54 a7.5 7.5 0 1 0 15 0 a7.5 7.5 0 1 0 -15 0zM286.23 409.04 a7.5 7.5 0 1 0 15 0 a7.5 7.5 0 1 0 -15 0zM351.18 446.54 a7.5 7.5 0 1 0 15 0 a7.5 7.5 0 1 0 -15 0zM351.18 521.54 a7.5 7.5 0 1 0 15 0 a7.5 7.5 0 1 0 -15 0zM286.23 559.04 a7.5 7.5 0 1 0 15 0 a7.5 7.5 0 1 0 -15 0zM481.09 521.54 a7.5 7.5 0 1 0 15 0 a7.5 7.5 0 1 0 -15 0zM546.04 559.04 a7.5 7.5 0 1 0 15 0 a7.5 7.5 0 1 0 -15 0zM546.04 634.04 a7.5 7.5 0 1 0 15 0 a7.5 7.5 0 1 0 -15 0zM481.09 671.54 a7.5 7.5 0 1 0 15 0 a7.5 7.5 0 1 0 -15 0zM416.13 634.04 a7.5 7.5 0 1 0 15 0 a7.5 7.5 0 1 0 -15 0zM416.13 559.04 a7.5 7.5 0 1 0 15 0 a7.5 7.5 0 1 0 -15 0zM610.99 296.54 a7.5 7.5 0 1 0 15 0 a7.5 7.5 0 1 0 -15 0zM675.95 334.04 a7.5 7.5 0 1 0 15 0 a7.5 7.5 0 1 0 -15 0zM675.95 409.04 a7.5 7.5 0 1 0 15 0 a7.5 7.5 0 1 0 -15 0zM610.99 446.54 a7.5 7.5 0 1 0 15 0 a7.5 7.5 0 1 0 -15 0zM546.04 409.04 a7.5 7.5 0 1 0 15 0 a7.5 7.5 0 1 0 -15 0zM546.04 334.04 a7.5 7.5 0 1 0 15 0 a7.5 7.5 0 1 0 -15 0zM675.95 -40.96 a7.5 7.5 0 1 0 15 0 a7.5 7.5 0 1 0 -15 0zM740.9 -3.46 a7.5 7.5 0 1 0 15 0 a7.5 7.5 0 1 0 -15 0zM740.9 71.54 a7.5 7.5 0 1 0 15 0 a7.5 7.5 0 1 0 -15 0zM675.95 109.04 a7.5 7.5 0 1 0 15 0 a7.5 7.5 0 1 0 -15 0zM610.99 71.54 a7.5 7.5 0 1 0 15 0 a7.5 7.5 0 1 0 -15 0zM610.99 -3.46 a7.5 7.5 0 1 0 15 0 a7.5 7.5 0 1 0 -15 0zM870.81 296.54 a7.5 7.5 0 1 0 15 0 a7.5 7.5 0 1 0 -15 0zM935.76 334.04 a7.5 7.5 0 1 0 15 0 a7.5 7.5 0 1 0 -15 0zM935.76 409.04 a7.5 7.5 0 1 0 15 0 a7.5 7.5 0 1 0 -15 0zM870.81 446.54 a7.5 7.5 0 1 0 15 0 a7.5 7.5 0 1 0 -15 0zM805.85 409.04 a7.5 7.5 0 1 0 15 0 a7.5 7.5 0 1 0 -15 0zM805.85 334.04 a7.5 7.5 0 1 0 15 0 a7.5 7.5 0 1 0 -15 0zM1000.72 71.54 a7.5 7.5 0 1 0 15 0 a7.5 7.5 0 1 0 -15 0zM1065.67 109.04 a7.5 7.5 0 1 0 15 0 a7.5 7.5 0 1 0 -15 0zM1065.67 184.04 a7.5 7.5 0 1 0 15 0 a7.5 7.5 0 1 0 -15 0zM1000.72 221.54 a7.5 7.5 0 1 0 15 0 a7.5 7.5 0 1 0 -15 0zM935.76 184.04 a7.5 7.5 0 1 0 15 0 a7.5 7.5 0 1 0 -15 0zM935.76 109.04 a7.5 7.5 0 1 0 15 0 a7.5 7.5 0 1 0 -15 0zM1000.72 446.54 a7.5 7.5 0 1 0 15 0 a7.5 7.5 0 1 0 -15 0zM1000.72 521.54 a7.5 7.5 0 1 0 15 0 a7.5 7.5 0 1 0 -15 0zM935.76 559.04 a7.5 7.5 0 1 0 15 0 a7.5 7.5 0 1 0 -15 0zM870.81 521.54 a7.5 7.5 0 1 0 15 0 a7.5 7.5 0 1 0 -15 0zM1130.62 221.54 a7.5 7.5 0 1 0 15 0 a7.5 7.5 0 1 0 -15 0zM1130.62 296.54 a7.5 7.5 0 1 0 15 0 a7.5 7.5 0 1 0 -15 0zM1065.67 334.04 a7.5 7.5 0 1 0 15 0 a7.5 7.5 0 1 0 -15 0zM1000.72 296.54 a7.5 7.5 0 1 0 15 0 a7.5 7.5 0 1 0 -15 0zM1130.62 521.54 a7.5 7.5 0 1 0 15 0 a7.5 7.5 0 1 0 -15 0zM1195.58 559.04 a7.5 7.5 0 1 0 15 0 a7.5 7.5 0 1 0 -15 0zM1195.58 634.04 a7.5 7.5 0 1 0 15 0 a7.5 7.5 0 1 0 -15 0zM1130.62 671.54 a7.5 7.5 0 1 0 15 0 a7.5 7.5 0 1 0 -15 0zM1065.67 634.04 a7.5 7.5 0 1 0 15 0 a7.5 7.5 0 1 0 -15 0zM1065.67 559.04 a7.5 7.5 0 1 0 15 0 a7.5 7.5 0 1 0 -15 0zM1260.53 71.54 a7.5 7.5 0 1 0 15 0 a7.5 7.5 0 1 0 -15 0zM1325.48 109.04 a7.5 7.5 0 1 0 15 0 a7.5 7.5 0 1 0 -15 0zM1325.48 184.04 a7.5 7.5 0 1 0 15 0 a7.5 7.5 0 1 0 -15 0zM1260.53 221.54 a7.5 7.5 0 1 0 15 0 a7.5 7.5 0 1 0 -15 0zM1195.58 184.04 a7.5 7.5 0 1 0 15 0 a7.5 7.5 0 1 0 -15 0zM1195.58 109.04 a7.5 7.5 0 1 0 15 0 a7.5 7.5 0 1 0 -15 0zM1260.53 296.54 a7.5 7.5 0 1 0 15 0 a7.5 7.5 0 1 0 -15 0zM1325.48 334.04 a7.5 7.5 0 1 0 15 0 a7.5 7.5 0 1 0 -15 0zM1325.48 409.04 a7.5 7.5 0 1 0 15 0 a7.5 7.5 0 1 0 -15 0zM1260.53 446.54 a7.5 7.5 0 1 0 15 0 a7.5 7.5 0 1 0 -15 0zM1195.58 409.04 a7.5 7.5 0 1 0 15 0 a7.5 7.5 0 1 0 -15 0zM1195.58 334.04 a7.5 7.5 0 1 0 15 0 a7.5 7.5 0 1 0 -15 0zM1390.44 71.54 a7.5 7.5 0 1 0 15 0 a7.5 7.5 0 1 0 -15 0zM1455.39 109.04 a7.5 7.5 0 1 0 15 0 a7.5 7.5 0 1 0 -15 0zM1455.39 184.04 a7.5 7.5 0 1 0 15 0 a7.5 7.5 0 1 0 -15 0zM1390.44 221.54 a7.5 7.5 0 1 0 15 0 a7.5 7.5 0 1 0 -15 0zM1325.49 184.04 a7.5 7.5 0 1 0 15 0 a7.5 7.5 0 1 0 -15 0zM1325.49 109.04 a7.5 7.5 0 1 0 15 0 a7.5 7.5 0 1 0 -15 0zM1390.44 296.54 a7.5 7.5 0 1 0 15 0 a7.5 7.5 0 1 0 -15 0zM1325.49 334.04 a7.5 7.5 0 1 0 15 0 a7.5 7.5 0 1 0 -15 0zM1325.49 409.04 a7.5 7.5 0 1 0 15 0 a7.5 7.5 0 1 0 -15 0zM1390.44 446.54 a7.5 7.5 0 1 0 15 0 a7.5 7.5 0 1 0 -15 0zM1390.44 521.54 a7.5 7.5 0 1 0 15 0 a7.5 7.5 0 1 0 -15 0zM1325.49 559.04 a7.5 7.5 0 1 0 15 0 a7.5 7.5 0 1 0 -15 0zM1260.53 521.54 a7.5 7.5 0 1 0 15 0 a7.5 7.5 0 1 0 -15 0zM1520.35 521.54 a7.5 7.5 0 1 0 15 0 a7.5 7.5 0 1 0 -15 0zM1585.3 559.04 a7.5 7.5 0 1 0 15 0 a7.5 7.5 0 1 0 -15 0zM1585.3 634.04 a7.5 7.5 0 1 0 15 0 a7.5 7.5 0 1 0 -15 0zM1520.35 671.54 a7.5 7.5 0 1 0 15 0 a7.5 7.5 0 1 0 -15 0zM1455.39 634.04 a7.5 7.5 0 1 0 15 0 a7.5 7.5 0 1 0 -15 0zM1455.39 559.04 a7.5 7.5 0 1 0 15 0 a7.5 7.5 0 1 0 -15 0z" fill="#03305d"></path><path d="M17.85 -29.16L61.15 -4.16L61.15 45.84L17.85 70.84L-25.45 45.84L-25.45 -4.16zM17.85 120.84L61.15 145.84L61.15 195.84L17.85 220.84L-25.45 195.84L-25.45 145.84zM61.15 195.84L104.46 220.84L104.46 270.84L61.15 295.84L17.85 270.84L17.85 220.84zM17.85 270.84L61.15 295.84L61.15 345.84L17.85 370.84L-25.45 345.84L-25.45 295.84zM61.15 345.84L104.46 370.84L104.46 420.84L61.15 445.84L17.85 420.84L17.85 370.84zM147.76 45.84L191.06 70.84L191.06 120.84L147.76 145.84L104.46 120.84L104.46 70.84zM104.46 120.84L147.76 145.84L147.76 195.84L104.46 220.84L61.15 195.84L61.15 145.84zM147.76 195.84L191.06 220.84L191.06 270.84L147.76 295.84L104.46 270.84L104.46 220.84zM104.46 420.84L147.76 445.84L147.76 495.84L104.46 520.84L61.15 495.84L61.15 445.84zM191.06 120.84L234.36 145.84L234.36 195.84L191.06 220.84L147.76 195.84L147.76 145.84zM234.36 195.84L277.67 220.84L277.67 270.84L234.36 295.84L191.06 270.84L191.06 220.84zM234.36 345.84L277.67 370.84L277.67 420.84L234.36 445.84L191.06 420.84L191.06 370.84zM191.06 420.84L234.36 445.84L234.36 495.84L191.06 520.84L147.76 495.84L147.76 445.84zM320.97 45.84L364.27 70.84L364.27 120.84L320.97 145.84L277.67 120.84L277.67 70.84zM277.67 120.84L320.97 145.84L320.97 195.84L277.67 220.84L234.36 195.84L234.36 145.84zM364.27 120.84L407.57 145.84L407.57 195.84L364.27 220.84L320.97 195.84L320.97 145.84zM407.57 195.84L450.88 220.84L450.88 270.84L407.57 295.84L364.27 270.84L364.27 220.84zM407.57 495.84L450.88 520.84L450.88 570.84L407.57 595.84L364.27 570.84L364.27 520.84zM450.88 -29.16L494.18 -4.16L494.18 45.84L450.88 70.84L407.57 45.84L407.57 -4.16zM450.88 120.84L494.18 145.84L494.18 195.84L450.88 220.84L407.57 195.84L407.57 145.84zM494.18 195.84L537.48 220.84L537.48 270.84L494.18 295.84L450.88 270.84L450.88 220.84zM494.18 495.84L537.48 520.84L537.48 570.84L494.18 595.84L450.88 570.84L450.88 520.84zM537.48 120.84L580.78 145.84L580.78 195.84L537.48 220.84L494.18 195.84L494.18 145.84zM580.78 195.84L624.09 220.84L624.09 270.84L580.78 295.84L537.48 270.84L537.48 220.84zM580.78 345.84L624.09 370.84L624.09 420.84L580.78 445.84L537.48 420.84L537.48 370.84zM580.78 495.84L624.09 520.84L624.09 570.84L580.78 595.84L537.48 570.84L537.48 520.84zM624.09 -29.16L667.39 -4.16L667.39 45.84L624.09 70.84L580.78 45.84L580.78 -4.16zM667.39 45.84L710.69 70.84L710.69 120.84L667.39 145.84L624.09 120.84L624.09 70.84zM710.69 -29.16L753.99 -4.16L753.99 45.84L710.69 70.84L667.39 45.84L667.39 -4.16zM753.99 45.84L797.3 70.84L797.3 120.84L753.99 145.84L710.69 120.84L710.69 70.84zM710.69 120.84L753.99 145.84L753.99 195.84L710.69 220.84L667.39 195.84L667.39 145.84zM753.99 345.84L797.3 370.84L797.3 420.84L753.99 445.84L710.69 420.84L710.69 370.84zM797.3 120.84L840.6 145.84L840.6 195.84L797.3 220.84L753.99 195.84L753.99 145.84zM840.6 195.84L883.9 220.84L883.9 270.84L840.6 295.84L797.3 270.84L797.3 220.84zM797.3 270.84L840.6 295.84L840.6 345.84L797.3 370.84L753.99 345.84L753.99 295.84zM927.2 195.84L970.51 220.84L970.51 270.84L927.2 295.84L883.9 270.84L883.9 220.84zM970.51 120.84L1013.81 145.84L1013.81 195.84L970.51 220.84L927.2 195.84L927.2 145.84zM1013.81 195.84L1057.11 220.84L1057.11 270.84L1013.81 295.84L970.51 270.84L970.51 220.84zM1057.11 -29.16L1100.41 -4.16L1100.41 45.84L1057.11 70.84L1013.81 45.84L1013.81 -4.16zM1057.11 270.84L1100.41 295.84L1100.41 345.84L1057.11 370.84L1013.81 345.84L1013.81 295.84zM1143.71 -29.16L1187.02 -4.16L1187.02 45.84L1143.71 70.84L1100.41 45.84L1100.41 -4.16zM1143.71 120.84L1187.02 145.84L1187.02 195.84L1143.71 220.84L1100.41 195.84L1100.41 145.84zM1187.02 345.84L1230.32 370.84L1230.32 420.84L1187.02 445.84L1143.71 420.84L1143.71 370.84zM1230.32 -29.16L1273.62 -4.16L1273.62 45.84L1230.32 70.84L1187.02 45.84L1187.02 -4.16zM1230.32 270.84L1273.62 295.84L1273.62 345.84L1230.32 370.84L1187.02 345.84L1187.02 295.84zM1273.62 345.84L1316.92 370.84L1316.92 420.84L1273.62 445.84L1230.32 420.84L1230.32 370.84zM1316.92 -29.16L1360.23 -4.16L1360.23 45.84L1316.92 70.84L1273.62 45.84L1273.62 -4.16zM1316.92 270.84L1360.23 295.84L1360.23 345.84L1316.92 370.84L1273.62 345.84L1273.62 295.84zM1360.23 495.84L1403.53 520.84L1403.53 570.84L1360.23 595.84L1316.92 570.84L1316.92 520.84zM1403.53 -29.16L1446.83 -4.16L1446.83 45.84L1403.53 70.84L1360.23 45.84L1360.23 -4.16zM1403.53 120.84L1446.83 145.84L1446.83 195.84L1403.53 220.84L1360.23 195.84L1360.23 145.84zM1403.53 270.84L1446.83 295.84L1446.83 345.84L1403.53 370.84L1360.23 345.84L1360.23 295.84zM1403.53 420.84L1446.83 445.84L1446.83 495.84L1403.53 520.84L1360.23 495.84L1360.23 445.84z" stroke="rgba(6, 80, 156, 0.93)" stroke-width="2"></path></g><defs><mask id="SvgjsMask1000"><rect width="1440" height="560" fill="#ffffff"></rect></mask></defs></svg>